<svg xmlns="http://www.w3.org/2000/svg" width="16" height="16"><path d="M13.45 5.61l-.58-.94-1.068.812-.076.094c-.335.415-.927 1.34-1.124 2.876l-.02.165.033.163.07.345c0 1.654-1.346 3-3 3a2.98 2.98 0 0 1-2.98-2.979c0-1.43 1.007-2.632 2.35-2.93v2.926l2.984-2.46h.012l3.06-2.582L8.196 0H7.06v2.404A6.76 6.76 0 0 0 .938 9.125c0 1.81.707 3.508 1.986 4.782C4.2 15.19 5.9 15.895 7.708 15.895a6.76 6.76 0 0 0 6.75-6.75 6.74 6.74 0 0 0-1.007-3.536z" fill="#F6F6F6"/><path d="M12.6 6.134l-.094.07c-.27.333-.746 1.096-.9 2.375l.092.545c0 2.206-1.794 4-4 4-1.098 0-2.093-.445-2.817-1.164-.718-.724-1.163-1.718-1.163-2.815 0-2.206 1.794-4 4-4l.35.025v1.85l1.63-1.34 1.87-1.577-3.5-2.917v2.218l-.37-.03a5.75 5.75 0 0 0-5.75 5.75 5.73 5.73 0 0 0 1.695 4.076c1.042 1.046 2.482 1.694 4.076 1.694a5.75 5.75 0 0 0 5.75-5.75c-.001-1.106-.318-2.135-.86-3.012z" fill="#424242"/></svg>